<?xml version="1.0" encoding="iso-8859-1"?>
<!-- Generator: Adobe Illustrator 19.0.0, SVG Export Plug-In . SVG Version: 6.00 Build 0)  -->
<svg version="1.1" id="Capa_1" xmlns="http://www.w3.org/2000/svg" xmlns:xlink="http://www.w3.org/1999/xlink" x="0px" y="0px"
	 viewBox="0 0 441.887 441.887" style="enable-background:new 0 0 441.887 441.887;" xml:space="preserve">
<g id="XMLID_939_">
	<path id="XMLID_940_" d="M384.693,150.375c0-29.683-18.538-55.117-44.644-65.335c-1.535-37.319-32.376-67.207-70.065-67.207
		c-7.957,0-15.771,1.371-23.13,3.953c-1.907-1.907-3.92-3.714-6.033-5.408C227.654,5.816,211.095,0,194.193,0
		c-30.033,0-55.977,17.844-67.787,43.486C92.375,48.279,66.11,77.592,66.11,112.924c0,6.978,1.06,13.877,3.081,20.466
		c-7.555,9.707-11.998,21.857-11.998,34.821c0,17.354,7.832,32.91,20.145,43.328l30.458,230.348h226.295l32.308-244.337
		C377.755,185.084,384.693,168.526,384.693,150.375z M87.193,168.211c0-12.942,9.191-23.736,21.403-26.215
		c-7.687-7.309-12.486-17.627-12.486-29.072c0-22.159,17.965-40.124,40.125-40.124c4.695,0,9.197,0.813,13.385,2.296
		c-0.002-0.172-0.01-0.342-0.01-0.513C149.61,49.96,169.57,30,194.193,30c21.086,0,38.74,14.643,43.381,34.313
		c7.299-9.987,19.094-16.479,32.41-16.479c22.162,0,40.125,17.965,40.125,40.124c0,9.163-3.076,17.604-8.246,24.357
		c3.994-1.332,8.262-2.065,12.705-2.065c22.161,0,40.125,17.966,40.125,40.126c0,14.764-7.98,27.657-19.855,34.625H93.124
		C89.417,180.409,87.193,174.57,87.193,168.211z M199.664,411.887L183.566,215h74.754l-16.098,196.887H199.664z M108.058,215h45.408
		l16.098,196.887h-35.473L108.058,215z M272.323,411.887L288.421,215h45.408l-26.033,196.887H272.323z"/>
	<circle id="XMLID_946_" cx="145.943" cy="115" r="15"/>
	<circle id="XMLID_947_" cx="215.943" cy="145" r="15"/>
	<circle id="XMLID_948_" cx="265.943" cy="95" r="15"/>
</g>
<g>
</g>
<g>
</g>
<g>
</g>
<g>
</g>
<g>
</g>
<g>
</g>
<g>
</g>
<g>
</g>
<g>
</g>
<g>
</g>
<g>
</g>
<g>
</g>
<g>
</g>
<g>
</g>
<g>
</g>
</svg>
